<svg width="234" height="31" viewBox="0 0 234 31" fill="none" xmlns="http://www.w3.org/2000/svg">
<path d="M8 24H0.818182V0.727272H8.31818C10.5758 0.727272 12.5076 1.19318 14.1136 2.125C15.7197 3.04924 16.9508 4.37879 17.8068 6.11364C18.6629 7.84091 19.0909 9.90909 19.0909 12.3182C19.0909 14.7424 18.6591 16.8295 17.7955 18.5795C16.9318 20.322 15.6742 21.6629 14.0227 22.6023C12.3712 23.5341 10.3636 24 8 24ZM3.63636 21.5H7.81818C9.74242 21.5 11.3371 21.1288 12.6023 20.3864C13.8674 19.6439 14.8106 18.5871 15.4318 17.2159C16.053 15.8447 16.3636 14.2121 16.3636 12.3182C16.3636 10.4394 16.0568 8.82197 15.4432 7.46591C14.8295 6.10227 13.9129 5.05682 12.6932 4.32954C11.4735 3.5947 9.95455 3.22727 8.13636 3.22727H3.63636V21.5ZM23.4545 24V6.54545H26.1364V24H23.4545ZM24.8182 3.63636C24.2955 3.63636 23.8447 3.45833 23.4659 3.10227C23.0947 2.74621 22.9091 2.31818 22.9091 1.81818C22.9091 1.31818 23.0947 0.890151 23.4659 0.53409C23.8447 0.17803 24.2955 0 24.8182 0C25.3409 0 25.7879 0.17803 26.1591 0.53409C26.5379 0.890151 26.7273 1.31818 26.7273 1.81818C26.7273 2.31818 26.5379 2.74621 26.1591 3.10227C25.7879 3.45833 25.3409 3.63636 24.8182 3.63636ZM38.0938 30.9091C36.7983 30.9091 35.6847 30.7424 34.7528 30.4091C33.821 30.0833 33.0445 29.6515 32.4233 29.1136C31.8097 28.5833 31.321 28.0152 30.9574 27.4091L33.0938 25.9091C33.3362 26.2273 33.643 26.5909 34.0142 27C34.3854 27.4167 34.893 27.7765 35.5369 28.0795C36.1884 28.3902 37.0407 28.5455 38.0938 28.5455C39.5028 28.5455 40.6657 28.2045 41.5824 27.5227C42.4991 26.8409 42.9574 25.7727 42.9574 24.3182V20.7727H42.7301C42.5331 21.0909 42.2528 21.4848 41.8892 21.9545C41.5331 22.4167 41.018 22.8295 40.3438 23.1932C39.6771 23.5492 38.7756 23.7273 37.6392 23.7273C36.2301 23.7273 34.965 23.3939 33.8438 22.7273C32.7301 22.0606 31.8475 21.0909 31.196 19.8182C30.5521 18.5455 30.2301 17 30.2301 15.1818C30.2301 13.3939 30.5445 11.8371 31.1733 10.5114C31.8021 9.17803 32.6771 8.14773 33.7983 7.42045C34.9195 6.68561 36.215 6.31818 37.6847 6.31818C38.821 6.31818 39.7225 6.50758 40.3892 6.88636C41.0634 7.25758 41.5786 7.68182 41.9347 8.15909C42.2983 8.62879 42.5786 9.01515 42.7756 9.31818H43.0483V6.54545H45.6392V24.5C45.6392 26 45.2983 27.2197 44.6165 28.1591C43.9422 29.1061 43.0331 29.7992 41.8892 30.2386C40.7528 30.6856 39.4877 30.9091 38.0938 30.9091ZM38.0028 21.3182C39.0786 21.3182 39.9877 21.072 40.7301 20.5795C41.4725 20.0871 42.0369 19.3788 42.4233 18.4545C42.8097 17.5303 43.0028 16.4242 43.0028 15.1364C43.0028 13.8788 42.8134 12.7689 42.4347 11.8068C42.0559 10.8447 41.4953 10.0909 40.7528 9.54545C40.0104 9 39.0938 8.72727 38.0028 8.72727C36.8665 8.72727 35.9195 9.01515 35.1619 9.59091C34.4119 10.1667 33.8475 10.9394 33.4688 11.9091C33.0975 12.8788 32.9119 13.9545 32.9119 15.1364C32.9119 16.3485 33.1013 17.4205 33.4801 18.3523C33.8665 19.2765 34.4347 20.0038 35.1847 20.5341C35.9422 21.0568 36.8816 21.3182 38.0028 21.3182ZM50.5483 24V6.54545H53.2301V24H50.5483ZM51.9119 3.63636C51.3892 3.63636 50.9384 3.45833 50.5597 3.10227C50.1884 2.74621 50.0028 2.31818 50.0028 1.81818C50.0028 1.31818 50.1884 0.890151 50.5597 0.53409C50.9384 0.17803 51.3892 0 51.9119 0C52.4347 0 52.8816 0.17803 53.2528 0.53409C53.6316 0.890151 53.821 1.31818 53.821 1.81818C53.821 2.31818 53.6316 2.74621 53.2528 3.10227C52.8816 3.45833 52.4347 3.63636 51.9119 3.63636ZM65.733 6.54545V8.81818H56.6875V6.54545H65.733ZM59.3239 2.36364H62.0057V19C62.0057 19.7576 62.1155 20.3258 62.3352 20.7045C62.5625 21.0758 62.8504 21.3258 63.1989 21.4545C63.5549 21.5758 63.9299 21.6364 64.3239 21.6364C64.6193 21.6364 64.8617 21.6212 65.0511 21.5909C65.2405 21.553 65.392 21.5227 65.5057 21.5L66.0511 23.9091C65.8693 23.9773 65.6155 24.0455 65.2898 24.1136C64.964 24.1894 64.5511 24.2273 64.0511 24.2273C63.2936 24.2273 62.5511 24.0644 61.8239 23.7386C61.1042 23.4129 60.5057 22.9167 60.0284 22.25C59.5587 21.5833 59.3239 20.7424 59.3239 19.7273V2.36364ZM76.8977 24.3636C75.2159 24.3636 73.7652 23.9924 72.5455 23.25C71.3333 22.5 70.3977 21.4545 69.7386 20.1136C69.0871 18.7652 68.7614 17.197 68.7614 15.4091C68.7614 13.6212 69.0871 12.0455 69.7386 10.6818C70.3977 9.31061 71.3144 8.24242 72.4886 7.47727C73.6705 6.70455 75.0492 6.31818 76.625 6.31818C77.5341 6.31818 78.4318 6.4697 79.3182 6.77273C80.2045 7.07576 81.0114 7.56818 81.7386 8.25C82.4659 8.92424 83.0455 9.81818 83.4773 10.9318C83.9091 12.0455 84.125 13.4167 84.125 15.0455V16.1818H70.6705V13.8636H81.3977C81.3977 12.8788 81.2008 12 80.8068 11.2273C80.4205 10.4545 79.8674 9.8447 79.1477 9.39773C78.4356 8.95076 77.5947 8.72727 76.625 8.72727C75.5568 8.72727 74.6326 8.99242 73.8523 9.52273C73.0795 10.0455 72.4848 10.7273 72.0682 11.5682C71.6515 12.4091 71.4432 13.3106 71.4432 14.2727V15.8182C71.4432 17.1364 71.6705 18.2538 72.125 19.1705C72.5871 20.0795 73.2273 20.7727 74.0455 21.25C74.8636 21.7197 75.8144 21.9545 76.8977 21.9545C77.6023 21.9545 78.2386 21.8561 78.8068 21.6591C79.3826 21.4545 79.8788 21.1515 80.2955 20.75C80.7121 20.3409 81.0341 19.8333 81.2614 19.2273L83.8523 19.9545C83.5795 20.8333 83.1212 21.6061 82.4773 22.2727C81.8333 22.9318 81.0379 23.447 80.0909 23.8182C79.1439 24.1818 78.0795 24.3636 76.8977 24.3636ZM109.568 10.4545L107.159 11.1364C107.008 10.7348 106.784 10.3447 106.489 9.96591C106.201 9.57955 105.807 9.26136 105.307 9.01136C104.807 8.76136 104.167 8.63636 103.386 8.63636C102.318 8.63636 101.428 8.88258 100.716 9.375C100.011 9.85985 99.6591 10.4773 99.6591 11.2273C99.6591 11.8939 99.9015 12.4205 100.386 12.8068C100.871 13.1932 101.629 13.5152 102.659 13.7727L105.25 14.4091C106.811 14.7879 107.973 15.3674 108.739 16.1477C109.504 16.9205 109.886 17.9167 109.886 19.1364C109.886 20.1364 109.598 21.0303 109.023 21.8182C108.455 22.6061 107.659 23.2273 106.636 23.6818C105.614 24.1364 104.424 24.3636 103.068 24.3636C101.288 24.3636 99.8144 23.9773 98.6477 23.2045C97.4811 22.4318 96.7424 21.303 96.4318 19.8182L98.9773 19.1818C99.2197 20.1212 99.678 20.8258 100.352 21.2955C101.034 21.7652 101.924 22 103.023 22C104.273 22 105.265 21.7348 106 21.2045C106.742 20.6667 107.114 20.0227 107.114 19.2727C107.114 18.6667 106.902 18.1591 106.477 17.75C106.053 17.3333 105.402 17.0227 104.523 16.8182L101.614 16.1364C100.015 15.7576 98.8409 15.1705 98.0909 14.375C97.3485 13.572 96.9773 12.5682 96.9773 11.3636C96.9773 10.3788 97.2538 9.50758 97.8068 8.75C98.3674 7.99242 99.1288 7.39773 100.091 6.96591C101.061 6.53409 102.159 6.31818 103.386 6.31818C105.114 6.31818 106.47 6.69697 107.455 7.45454C108.447 8.21212 109.152 9.21212 109.568 10.4545ZM121.241 24.3636C119.56 24.3636 118.109 23.9924 116.889 23.25C115.677 22.5 114.741 21.4545 114.082 20.1136C113.431 18.7652 113.105 17.197 113.105 15.4091C113.105 13.6212 113.431 12.0455 114.082 10.6818C114.741 9.31061 115.658 8.24242 116.832 7.47727C118.014 6.70455 119.393 6.31818 120.969 6.31818C121.878 6.31818 122.776 6.4697 123.662 6.77273C124.548 7.07576 125.355 7.56818 126.082 8.25C126.81 8.92424 127.389 9.81818 127.821 10.9318C128.253 12.0455 128.469 13.4167 128.469 15.0455V16.1818H115.014V13.8636H125.741C125.741 12.8788 125.545 12 125.151 11.2273C124.764 10.4545 124.211 9.8447 123.491 9.39773C122.779 8.95076 121.938 8.72727 120.969 8.72727C119.901 8.72727 118.976 8.99242 118.196 9.52273C117.423 10.0455 116.829 10.7273 116.412 11.5682C115.995 12.4091 115.787 13.3106 115.787 14.2727V15.8182C115.787 17.1364 116.014 18.2538 116.469 19.1705C116.931 20.0795 117.571 20.7727 118.389 21.25C119.207 21.7197 120.158 21.9545 121.241 21.9545C121.946 21.9545 122.582 21.8561 123.151 21.6591C123.726 21.4545 124.223 21.1515 124.639 20.75C125.056 20.3409 125.378 19.8333 125.605 19.2273L128.196 19.9545C127.923 20.8333 127.465 21.6061 126.821 22.2727C126.177 22.9318 125.382 23.447 124.435 23.8182C123.488 24.1818 122.423 24.3636 121.241 24.3636ZM143.548 16.8636V6.54545H146.23V24H143.548V21.0455H143.366C142.957 21.9318 142.321 22.6856 141.457 23.3068C140.594 23.9205 139.503 24.2273 138.185 24.2273C137.094 24.2273 136.124 23.9886 135.276 23.5114C134.427 23.0265 133.76 22.2992 133.276 21.3295C132.791 20.3523 132.548 19.1212 132.548 17.6364V6.54545H135.23V17.4545C135.23 18.7273 135.586 19.7424 136.298 20.5C137.018 21.2576 137.935 21.6364 139.048 21.6364C139.715 21.6364 140.393 21.4659 141.082 21.125C141.779 20.7841 142.363 20.2614 142.832 19.5568C143.31 18.8523 143.548 17.9545 143.548 16.8636ZM167.733 6.54545V8.81818H158.688V6.54545H167.733ZM161.324 2.36364H164.006V19C164.006 19.7576 164.116 20.3258 164.335 20.7045C164.563 21.0758 164.85 21.3258 165.199 21.4545C165.555 21.5758 165.93 21.6364 166.324 21.6364C166.619 21.6364 166.862 21.6212 167.051 21.5909C167.241 21.553 167.392 21.5227 167.506 21.5L168.051 23.9091C167.869 23.9773 167.616 24.0455 167.29 24.1136C166.964 24.1894 166.551 24.2273 166.051 24.2273C165.294 24.2273 164.551 24.0644 163.824 23.7386C163.104 23.4129 162.506 22.9167 162.028 22.25C161.559 21.5833 161.324 20.7424 161.324 19.7273V2.36364ZM178.898 24.3636C177.216 24.3636 175.765 23.9924 174.545 23.25C173.333 22.5 172.398 21.4545 171.739 20.1136C171.087 18.7652 170.761 17.197 170.761 15.4091C170.761 13.6212 171.087 12.0455 171.739 10.6818C172.398 9.31061 173.314 8.24242 174.489 7.47727C175.67 6.70455 177.049 6.31818 178.625 6.31818C179.534 6.31818 180.432 6.4697 181.318 6.77273C182.205 7.07576 183.011 7.56818 183.739 8.25C184.466 8.92424 185.045 9.81818 185.477 10.9318C185.909 12.0455 186.125 13.4167 186.125 15.0455V16.1818H172.67V13.8636H183.398C183.398 12.8788 183.201 12 182.807 11.2273C182.42 10.4545 181.867 9.8447 181.148 9.39773C180.436 8.95076 179.595 8.72727 178.625 8.72727C177.557 8.72727 176.633 8.99242 175.852 9.52273C175.08 10.0455 174.485 10.7273 174.068 11.5682C173.652 12.4091 173.443 13.3106 173.443 14.2727V15.8182C173.443 17.1364 173.67 18.2538 174.125 19.1705C174.587 20.0795 175.227 20.7727 176.045 21.25C176.864 21.7197 177.814 21.9545 178.898 21.9545C179.602 21.9545 180.239 21.8561 180.807 21.6591C181.383 21.4545 181.879 21.1515 182.295 20.75C182.712 20.3409 183.034 19.8333 183.261 19.2273L185.852 19.9545C185.58 20.8333 185.121 21.6061 184.477 22.2727C183.833 22.9318 183.038 23.447 182.091 23.8182C181.144 24.1818 180.08 24.3636 178.898 24.3636ZM191.736 6.54545L195.918 13.6818L200.099 6.54545H203.19L197.554 15.2727L203.19 24H200.099L195.918 17.2273L191.736 24H188.645L194.19 15.2727L188.645 6.54545H191.736ZM214.608 6.54545V8.81818H205.562V6.54545H214.608ZM208.199 2.36364H210.881V19C210.881 19.7576 210.991 20.3258 211.21 20.7045C211.438 21.0758 211.725 21.3258 212.074 21.4545C212.43 21.5758 212.805 21.6364 213.199 21.6364C213.494 21.6364 213.737 21.6212 213.926 21.5909C214.116 21.553 214.267 21.5227 214.381 21.5L214.926 23.9091C214.744 23.9773 214.491 24.0455 214.165 24.1136C213.839 24.1894 213.426 24.2273 212.926 24.2273C212.169 24.2273 211.426 24.0644 210.699 23.7386C209.979 23.4129 209.381 22.9167 208.903 22.25C208.434 21.5833 208.199 20.7424 208.199 19.7273V2.36364ZM225.545 24.3636C223.97 24.3636 222.587 23.9886 221.398 23.2386C220.216 22.4886 219.292 21.4394 218.625 20.0909C217.966 18.7424 217.636 17.1667 217.636 15.3636C217.636 13.5455 217.966 11.9583 218.625 10.6023C219.292 9.24621 220.216 8.19318 221.398 7.44318C222.587 6.69318 223.97 6.31818 225.545 6.31818C227.121 6.31818 228.5 6.69318 229.682 7.44318C230.871 8.19318 231.795 9.24621 232.455 10.6023C233.121 11.9583 233.455 13.5455 233.455 15.3636C233.455 17.1667 233.121 18.7424 232.455 20.0909C231.795 21.4394 230.871 22.4886 229.682 23.2386C228.5 23.9886 227.121 24.3636 225.545 24.3636ZM225.545 21.9545C226.742 21.9545 227.727 21.6477 228.5 21.0341C229.273 20.4205 229.845 19.6136 230.216 18.6136C230.587 17.6136 230.773 16.5303 230.773 15.3636C230.773 14.197 230.587 13.1098 230.216 12.1023C229.845 11.0947 229.273 10.2803 228.5 9.65909C227.727 9.03788 226.742 8.72727 225.545 8.72727C224.348 8.72727 223.364 9.03788 222.591 9.65909C221.818 10.2803 221.246 11.0947 220.875 12.1023C220.504 13.1098 220.318 14.197 220.318 15.3636C220.318 16.5303 220.504 17.6136 220.875 18.6136C221.246 19.6136 221.818 20.4205 222.591 21.0341C223.364 21.6477 224.348 21.9545 225.545 21.9545Z" fill="#0A3871"/>
</svg>
